<?xml version="1.0" encoding="utf-8"?>
<?xml-stylesheet type="text/xsl" href="rss1.xsl"?>
<rss version="2.0" xmlns:atom="http://www.w3.org/2005/Atom" xmlns:content="http://purl.org/rss/1.0/modules/content/" xmlns:dc="http://purl.org/dc/elements/1.1/" xmlns:media="http://search.yahoo.com/mrss/">
<channel>
 <title>Getty</title>
 <link>http://www.gettyimg.com/</link>
 <atom:link href="http://www.gettyimg.com/" rel="self" type="application/rss+xml" />

 
                <item>
                <title><![CDATA[【Music Videos】Sarah Geronimo - I Just Fall In Love Again (From Finally Found Someone) (1080p-WEB-PCM)]]></title>
                <link><![CDATA[https://sharemania.us/threads/sarah-geronimo-i-just-fall-in-love-again-from-finally-found-someone-1080p-web-pcm.226993/]]></link>
                <description><![CDATA[<article>
<blockquote class="messageText SelectQuoteContainer ugc baseHtml">
<img src="https://i.imgur.com/d8f7YpK.jpg" class="bbCodeImage LbImage" alt="[​IMG]" data-url="https://i.imgur.com/d8f7YpK.jpg" style=""><br>
<br>
General<br>
Complete name : D:\Sarah Geronimo - I Just Fall In Love Again (From Finally Found Someone) (1080p-WEB-PCM).mov<br>
Format : MPEG-4<br>
Format profile : QuickTime<br>
Codec ID : qt 0000.02 (qt )<br>
File size : 370 MiB<br>
Duration : 3 min 38 s<br>
Overall bit rate mode : Variable<br>
Overall bit rate : 14.2 Mb/s<br>
Writing application : Lavf58.76.100<br>
<br>
Video<br>
ID : 1<br>
Format : AVC<br>
Format/Info : Advanced Video Codec<br>
Format profile : Main@L4<br>
Format settings, CABAC : Yes<br>
Format settings, RefFrames : 2 frames<br>
Codec ID : avc1<br>
Codec ID/Info : Advanced Video Coding<br>
Duration : 3 min 38 s<br>
Source duration : 3 min 38 s<br>
Bit rate mode : Variable<br>
Bit rate : 12.8 Mb/s<br>
Maximum bit rate : 16.0 Mb/s<br>
Width : 1 920 pixels<br>
Height : 742 pixels<br>
Display aspect ratio : 2.588<br>
Frame rate mode : Constant<br>
Frame rate : 30.000 FPS<br>
Color space : YUV<br>
Chroma subsampling : 4:2:0<br>
Bit depth : 8 bits<br>
Scan type : Progressive<br>
Bits/(Pixel*Frame) : 0.299<br>
Stream size : 333 MiB (90%)<br>
Source stream size : 333 MiB (90%)<br>
Color range : Limited<br>
Color primaries : BT.709<br>
Transfer characteristics : BT.709<br>
Matrix coefficients : BT.709<br>
mdhd_Duration : 218533<br>
<br>
Audio<br>
ID : 2<br>
Format : PCM<br>
Format settings, Endianness : Little<br>
Format settings, Sign : Signed<br>
Codec ID : sowt<br>
Duration : 3 min 38 s<br>
Source duration : 3 min 38 s<br>
Bit rate mode : Constant<br>
Bit rate : 1 411.2 kb/s<br>
Channel(s) : 2 channels<br>
Channel positions : Front: L R<br>
Sampling rate : 44.1 kHz<br>
Bit depth : 16 bits<br>
Stream size : 36.7 MiB (10%)<br>
Source stream size : 36.7 MiB (10%)<br>
Default : Yes<br>
Alternate group : 1<br>
mdhd_Duration : 218413<br>
<br>
<div class="bbCodeBlock bbCodeVfcHH HiddenContent">
<div class="attribution type">Hidden Content:</div>
<blockquote>You must reply before you can see the hidden data contained here.</blockquote>
</div>
<div class="messageTextEndMarker">&nbsp;</div>
</blockquote>
</article>]]></description>
                <author><![CDATA[help304]]></author>
                </item>

                </channel></rss>